<svg width="439" height="76" viewBox="0 0 439 76" fill="none" xmlns="http://www.w3.org/2000/svg">
<path d="M88.52 31.4V28.08H96.04V57H92.36V31.4H88.52ZM102.293 42.24C102.293 37.6533 103.039 34.08 104.533 31.52C106.026 28.9333 108.639 27.64 112.373 27.64C116.079 27.64 118.679 28.9333 120.173 31.52C121.666 34.08 122.412 37.6533 122.412 42.24C122.412 46.9067 121.666 50.5333 120.173 53.12C118.679 55.7067 116.079 57 112.373 57C108.639 57 106.026 55.7067 104.533 53.12C103.039 50.5333 102.293 46.9067 102.293 42.24ZM118.813 42.24C118.813 39.92 118.653 37.96 118.333 36.36C118.039 34.7333 117.413 33.4267 116.453 32.44C115.519 31.4533 114.159 30.96 112.373 30.96C110.559 30.96 109.173 31.4533 108.213 32.44C107.279 33.4267 106.653 34.7333 106.333 36.36C106.039 37.96 105.893 39.92 105.893 42.24C105.893 44.64 106.039 46.6533 106.333 48.28C106.653 49.9067 107.279 51.2133 108.213 52.2C109.173 53.1867 110.559 53.68 112.373 53.68C114.159 53.68 115.519 53.1867 116.453 52.2C117.413 51.2133 118.039 49.9067 118.333 48.28C118.653 46.6533 118.813 44.64 118.813 42.24ZM126.45 31.4V28.08H133.97V57H130.29V31.4H126.45ZM160.166 29.12C163.206 29.12 165.833 29.6933 168.046 30.84C170.286 31.96 171.993 33.5733 173.166 35.68C174.366 37.7867 174.966 40.2667 174.966 43.12C174.966 45.9733 174.366 48.4533 173.166 50.56C171.993 52.64 170.286 54.24 168.046 55.36C165.833 56.4533 163.206 57 160.166 57H151.486V29.12H160.166ZM160.166 54C163.766 54 166.513 53.0533 168.406 51.16C170.3 49.24 171.246 46.56 171.246 43.12C171.246 39.6533 170.286 36.9467 168.366 35C166.473 33.0533 163.74 32.08 160.166 32.08H155.126V54H160.166ZM181.648 31.52C180.954 31.52 180.368 31.28 179.888 30.8C179.408 30.32 179.168 29.7333 179.168 29.04C179.168 28.3467 179.408 27.76 179.888 27.28C180.368 26.8 180.954 26.56 181.648 26.56C182.314 26.56 182.874 26.8 183.328 27.28C183.808 27.76 184.048 28.3467 184.048 29.04C184.048 29.7333 183.808 30.32 183.328 30.8C182.874 31.28 182.314 31.52 181.648 31.52ZM183.408 35.08V57H179.768V35.08H183.408ZM198.651 34.72C200.545 34.72 202.198 35.1333 203.611 35.96C205.051 36.7867 206.118 37.8267 206.811 39.08V35.08H210.491V57.48C210.491 59.48 210.065 61.2533 209.211 62.8C208.358 64.3733 207.131 65.6 205.531 66.48C203.958 67.36 202.118 67.8 200.011 67.8C197.131 67.8 194.731 67.12 192.811 65.76C190.891 64.4 189.758 62.5467 189.411 60.2H193.011C193.411 61.5333 194.238 62.6 195.491 63.4C196.745 64.2267 198.251 64.64 200.011 64.64C202.011 64.64 203.638 64.0133 204.891 62.76C206.171 61.5067 206.811 59.7467 206.811 57.48V52.88C206.091 54.16 205.025 55.2267 203.611 56.08C202.198 56.9333 200.545 57.36 198.651 57.36C196.705 57.36 194.931 56.88 193.331 55.92C191.758 54.96 190.518 53.6133 189.611 51.88C188.705 50.1467 188.251 48.1733 188.251 45.96C188.251 43.72 188.705 41.76 189.611 40.08C190.518 38.3733 191.758 37.0533 193.331 36.12C194.931 35.1867 196.705 34.72 198.651 34.72ZM206.811 46C206.811 44.3467 206.478 42.9067 205.811 41.68C205.145 40.4533 204.238 39.52 203.091 38.88C201.971 38.2133 200.731 37.88 199.371 37.88C198.011 37.88 196.771 38.2 195.651 38.84C194.531 39.48 193.638 40.4133 192.971 41.64C192.305 42.8667 191.971 44.3067 191.971 45.96C191.971 47.64 192.305 49.1067 192.971 50.36C193.638 51.5867 194.531 52.5333 195.651 53.2C196.771 53.84 198.011 54.16 199.371 54.16C200.731 54.16 201.971 53.84 203.091 53.2C204.238 52.5333 205.145 51.5867 205.811 50.36C206.478 49.1067 206.811 47.6533 206.811 46ZM218.523 31.52C217.829 31.52 217.243 31.28 216.763 30.8C216.283 30.32 216.043 29.7333 216.043 29.04C216.043 28.3467 216.283 27.76 216.763 27.28C217.243 26.8 217.829 26.56 218.523 26.56C219.189 26.56 219.749 26.8 220.203 27.28C220.683 27.76 220.923 28.3467 220.923 29.04C220.923 29.7333 220.683 30.32 220.203 30.8C219.749 31.28 219.189 31.52 218.523 31.52ZM220.283 35.08V57H216.643V35.08H220.283ZM230.926 38.08V51C230.926 52.0667 231.153 52.8267 231.606 53.28C232.06 53.7067 232.846 53.92 233.966 53.92H236.646V57H233.366C231.34 57 229.82 56.5333 228.806 55.6C227.793 54.6667 227.286 53.1333 227.286 51V38.08H224.446V35.08H227.286V29.56H230.926V35.08H236.646V38.08H230.926ZM239.697 45.96C239.697 43.72 240.15 41.76 241.057 40.08C241.963 38.3733 243.203 37.0533 244.777 36.12C246.377 35.1867 248.15 34.72 250.097 34.72C252.017 34.72 253.683 35.1333 255.097 35.96C256.51 36.7867 257.563 37.8267 258.257 39.08V35.08H261.937V57H258.257V52.92C257.537 54.2 256.457 55.2667 255.017 56.12C253.603 56.9467 251.95 57.36 250.057 57.36C248.11 57.36 246.35 56.88 244.777 55.92C243.203 54.96 241.963 53.6133 241.057 51.88C240.15 50.1467 239.697 48.1733 239.697 45.96ZM258.257 46C258.257 44.3467 257.923 42.9067 257.257 41.68C256.59 40.4533 255.683 39.52 254.537 38.88C253.417 38.2133 252.177 37.88 250.817 37.88C249.457 37.88 248.217 38.2 247.097 38.84C245.977 39.48 245.083 40.4133 244.417 41.64C243.75 42.8667 243.417 44.3067 243.417 45.96C243.417 47.64 243.75 49.1067 244.417 50.36C245.083 51.5867 245.977 52.5333 247.097 53.2C248.217 53.84 249.457 54.16 250.817 54.16C252.177 54.16 253.417 53.84 254.537 53.2C255.683 52.5333 256.59 51.5867 257.257 50.36C257.923 49.1067 258.257 47.6533 258.257 46ZM271.728 27.4V57H268.088V27.4H271.728ZM287.236 43.04C287.236 40.32 287.849 37.88 289.076 35.72C290.302 33.5333 291.969 31.8267 294.076 30.6C296.209 29.3733 298.569 28.76 301.156 28.76C304.196 28.76 306.849 29.4933 309.116 30.96C311.382 32.4267 313.036 34.5067 314.076 37.2H309.716C308.942 35.52 307.822 34.2267 306.356 33.32C304.916 32.4133 303.182 31.96 301.156 31.96C299.209 31.96 297.462 32.4133 295.916 33.32C294.369 34.2267 293.156 35.52 292.276 37.2C291.396 38.8533 290.956 40.8 290.956 43.04C290.956 45.2533 291.396 47.2 292.276 48.88C293.156 50.5333 294.369 51.8133 295.916 52.72C297.462 53.6267 299.209 54.08 301.156 54.08C303.182 54.08 304.916 53.64 306.356 52.76C307.822 51.8533 308.942 50.56 309.716 48.88H314.076C313.036 51.5467 311.382 53.6133 309.116 55.08C306.849 56.52 304.196 57.24 301.156 57.24C298.569 57.24 296.209 56.64 294.076 55.44C291.969 54.2133 290.302 52.52 289.076 50.36C287.849 48.2 287.236 45.76 287.236 43.04ZM329.054 57.36C327.001 57.36 325.134 56.8933 323.454 55.96C321.801 55.0267 320.494 53.7067 319.534 52C318.601 50.2667 318.134 48.2667 318.134 46C318.134 43.76 318.614 41.7867 319.574 40.08C320.561 38.3467 321.894 37.0267 323.574 36.12C325.254 35.1867 327.134 34.72 329.214 34.72C331.294 34.72 333.174 35.1867 334.854 36.12C336.534 37.0267 337.854 38.3333 338.814 40.04C339.801 41.7467 340.294 43.7333 340.294 46C340.294 48.2667 339.787 50.2667 338.774 52C337.787 53.7067 336.441 55.0267 334.734 55.96C333.027 56.8933 331.134 57.36 329.054 57.36ZM329.054 54.16C330.361 54.16 331.587 53.8533 332.734 53.24C333.881 52.6267 334.801 51.7067 335.494 50.48C336.214 49.2533 336.574 47.76 336.574 46C336.574 44.24 336.227 42.7467 335.534 41.52C334.841 40.2933 333.934 39.3867 332.814 38.8C331.694 38.1867 330.481 37.88 329.174 37.88C327.841 37.88 326.614 38.1867 325.494 38.8C324.401 39.3867 323.521 40.2933 322.854 41.52C322.187 42.7467 321.854 44.24 321.854 46C321.854 47.7867 322.174 49.2933 322.814 50.52C323.481 51.7467 324.361 52.6667 325.454 53.28C326.547 53.8667 327.747 54.16 329.054 54.16ZM346.24 57.24C345.547 57.24 344.96 57 344.48 56.52C344 56.04 343.76 55.4533 343.76 54.76C343.76 54.0667 344 53.48 344.48 53C344.96 52.52 345.547 52.28 346.24 52.28C346.907 52.28 347.467 52.52 347.92 53C348.4 53.48 348.64 54.0667 348.64 54.76C348.64 55.4533 348.4 56.04 347.92 56.52C347.467 57 346.907 57.24 346.24 57.24Z" fill="white"/>
<path d="M29.8398 56.8751L60.9992 43.578V62.7029L29.8398 76V56.8751Z" fill="#9F9FE0"/>
<path d="M29.9219 35.5341L55.7373 24.3711V39.0636L29.9219 50.1445V35.5341Z" fill="#9F9FE0"/>
<path d="M30.0879 18.3473L51.2993 9.104V21.2698L30.0879 29.9526V18.3473Z" fill="#9F9FE0"/>
<path d="M12 44.0706L29.8406 56.8752V76L12 62.7029V44.0706Z" fill="#D3A3F0"/>
<path d="M17.0158 26.3147L29.9235 35.5341V50.2266L16.9336 41.0335L17.0158 26.3147Z" fill="#D3A3F0"/>
<path d="M22.0886 12.7156L30.1686 18.3792V29.9526L22.0293 23.205L22.0886 12.7156Z" fill="#D3A3F0"/>
<path d="M30.191 29.8911L51.2991 20.8417L53.4367 22.5654L55.7387 24.4122L29.9233 35.5342L25.5659 32.4151L20.5508 28.8035L30.191 29.8911Z" fill="#F5F5F6"/>
<path d="M16.9329 41.0336L29.9228 50.2266L18.495 48.7492L12 44.0706L16.9329 41.0336Z" fill="#9F9FE0"/>
<path d="M22.0307 23.2219L30.17 29.8705L20.4686 28.8034L17.0156 26.341L22.0307 23.2219Z" fill="#9F9FE0"/>
<path d="M51.2995 9.104L30.1703 18.3791L22.1133 12.7156L51.2995 9.104Z" fill="#F5F5F6"/>
<path d="M22.1952 12.7156L40.8579 4.99997L51.1348 9.10402L22.1952 12.7156Z" fill="#F5F5F6"/>
</svg>
